HIERARCHY
ROOT hip
{
  OFFSET 0 0 0
  CHANNELS 6 Xposition Yposition Zposition Zrotation Yrotation Xrotation
  JOINT abdomen
  {
    OFFSET 0 20.6881 -0.73152
    CHANNELS 3 Zrotation Xrotation Yrotation
    JOINT chest
    {
      OFFSET 0 11.7043 -0.48768
      CHANNELS 3 Zrotation Xrotation Yrotation
      JOINT neck
      {
        OFFSET 0 22.1894 -2.19456
        CHANNELS 3 Zrotation Xrotation Yrotation
        JOINT head
        {
          OFFSET -0.24384 7.07133 1.2192
          CHANNELS 3 Zrotation Xrotation Yrotation
          JOINT leftEye
          {
            OFFSET 4.14528 8.04674 8.04672
            CHANNELS 3 Zrotation Xrotation Yrotation
            End Site
            {
              OFFSET 1 0 0
            }
          }
          JOINT rightEye
          {
            OFFSET -3.6576 8.04674 8.04672
            CHANNELS 3 Zrotation Xrotation Yrotation
            End Site
            {
              OFFSET 1 0 0
            }
          }
        }
      }
      JOINT rCollar
      {
        OFFSET -2.68224 19.2634 -4.8768
        CHANNELS 3 Zrotation Xrotation Yrotation
        JOINT rShldr
        {
          OFFSET -8.77824 -1.95073 1.46304
          CHANNELS 3 Zrotation Xrotation Yrotation
          JOINT rForeArm
          {
            OFFSET -28.1742 -1.7115 0.48768
            CHANNELS 3 Zrotation Xrotation Yrotation
            JOINT rHand
            {
              OFFSET -22.5879 0.773209 7.07136
              CHANNELS 3 Zrotation Xrotation Yrotation
              JOINT rThumb1
              {
                OFFSET -1.2192 -0.487915 3.41376
                CHANNELS 3 Zrotation Xrotation Yrotation
                JOINT rThumb2
                {
                  OFFSET -3.37035 -0.52449 3.41376
                  CHANNELS 3 Zrotation Xrotation Yrotation
                  End Site
                  {
                    OFFSET -1.78271 -1.18214 1.43049
                  }
                }
              }
              JOINT rIndex1
              {
                OFFSET -7.75947 0.938293 5.60832
                CHANNELS 3 Zrotation Xrotation Yrotation
                JOINT rIndex2
                {
                  OFFSET -2.54057 -0.884171 1.56538
                  CHANNELS 3 Zrotation Xrotation Yrotation
                  End Site
                  {
                    OFFSET -1.62519 -0.234802 1.16502
                  }
                }
              }
              JOINT rMid1
              {
                OFFSET -8.24714 1.18213 3.41376
                CHANNELS 3 Zrotation Xrotation Yrotation
                JOINT rMid2
                {
                  OFFSET -3.10165 -0.590103 1.0647
                  CHANNELS 3 Zrotation Xrotation Yrotation
                  End Site
                  {
                    OFFSET -2.48547 -0.328903 0.83742
                  }
                }
              }
              JOINT rRing1
              {
                OFFSET -8.82822 0.546677 1.51678
                CHANNELS 3 Zrotation Xrotation Yrotation
                JOINT rRing2
                {
                  OFFSET -2.60934 -0.819778 -0.0198488
                  CHANNELS 3 Zrotation Xrotation Yrotation
                  End Site
                  {
                    OFFSET -2.33842 -0.294052 0.168128
                  }
                }
              }
              JOINT rPinky1
              {
                OFFSET -8.27202 -0.0477905 -0.4584
                CHANNELS 3 Zrotation Xrotation Yrotation
                JOINT rPinky2
                {
                  OFFSET -1.82734 -0.647385 -0.700984
                  CHANNELS 3 Zrotation Xrotation Yrotation
                  End Site
                  {
                    OFFSET -1.69225 -0.51767 -0.607171
                  }
                }
              }
            }
          }
        }
      }
      JOINT lCollar
      {
        OFFSET 2.68224 19.2634 -4.8768
        CHANNELS 3 Zrotation Xrotation Yrotation
        JOINT lShldr
        {
          OFFSET 8.77824 -1.95073 1.46304
          CHANNELS 3 Zrotation Xrotation Yrotation
          JOINT lForeArm
          {
            OFFSET 28.1742 -1.7115 0.48768
            CHANNELS 3 Zrotation Xrotation Yrotation
            JOINT lHand
            {
              OFFSET 22.5879 0.773209 7.07136
              CHANNELS 3 Zrotation Xrotation Yrotation
              JOINT lThumb1
              {
                OFFSET 1.2192 -0.487915 3.41376
                CHANNELS 3 Zrotation Xrotation Yrotation
                JOINT lThumb2
                {
                  OFFSET 3.37035 -0.52449 3.41376
                  CHANNELS 3 Zrotation Xrotation Yrotation
                  End Site
                  {
                    OFFSET 1.78271 -1.18214 1.43049
                  }
                }
              }
              JOINT lIndex1
              {
                OFFSET 7.75947 0.938293 5.60832
                CHANNELS 3 Zrotation Xrotation Yrotation
                JOINT lIndex2
                {
                  OFFSET 2.54057 -0.884171 1.56538
                  CHANNELS 3 Zrotation Xrotation Yrotation
                  End Site
                  {
                    OFFSET 1.62519 -0.234802 1.16502
                  }
                }
              }
              JOINT lMid1
              {
                OFFSET 8.24714 1.18213 3.41376
                CHANNELS 3 Zrotation Xrotation Yrotation
                JOINT lMid2
                {
                  OFFSET 3.10165 -0.590103 1.0647
                  CHANNELS 3 Zrotation Xrotation Yrotation
                  End Site
                  {
                    OFFSET 2.48547 -0.328903 0.83742
                  }
                }
              }
              JOINT lRing1
              {
                OFFSET 8.82822 0.546677 1.51678
                CHANNELS 3 Zrotation Xrotation Yrotation
                JOINT lRing2
                {
                  OFFSET 2.60934 -0.819778 -0.0198488
                  CHANNELS 3 Zrotation Xrotation Yrotation
                  End Site
                  {
                    OFFSET 2.33842 -0.294052 0.168128
                  }
                }
              }
              JOINT lPinky1
              {
                OFFSET 8.27202 -0.0477905 -0.4584
                CHANNELS 3 Zrotation Xrotation Yrotation
                JOINT lPinky2
                {
                  OFFSET 1.82734 -0.647385 -0.700984
                  CHANNELS 3 Zrotation Xrotation Yrotation
                  End Site
                  {
                    OFFSET 1.69225 -0.51767 -0.607171
                  }
                }
              }
            }
          }
        }
      }
    }
  }
  JOINT rButtock
  {
    OFFSET -8.77824 4.35084 1.2192
    CHANNELS 3 Zrotation Xrotation Yrotation
    JOINT rThigh
    {
      OFFSET 0 -1.70687 -2.19456
      CHANNELS 3 Zrotation Xrotation Yrotation
      JOINT rShin
      {
        OFFSET 0 -36.8199 0.73152
        CHANNELS 3 Zrotation Xrotation Yrotation
        JOINT rFoot
        {
          OFFSET 0.73152 -45.1104 -5.12064
          CHANNELS 3 Zrotation Xrotation Yrotation
          End Site
          {
            OFFSET -1.1221 -3.69964 12.103
          }
        }
      }
    }
  }
  JOINT lButtock
  {
    OFFSET 8.77824 4.35084 1.2192
    CHANNELS 3 Zrotation Xrotation Yrotation
    JOINT lThigh
    {
      OFFSET 0 -1.70687 -2.19456
      CHANNELS 3 Zrotation Xrotation Yrotation
      JOINT lShin
      {
        OFFSET 0 -36.8199 0.73152
        CHANNELS 3 Zrotation Xrotation Yrotation
        JOINT lFoot
        {
          OFFSET -0.73152 -45.1104 -5.12064
          CHANNELS 3 Zrotation Xrotation Yrotation
          End Site
          {
            OFFSET 1.1221 -3.69964 12.103
          }
        }
      }
    }
  }
}
MOTION
Frames:	4
Frame Time:	0.03333
-11.899610426952986 37.78290235631262 13.451702133699008 1.6404271125793457 17.383468627929688 6.1973876953125 -12.24905014038086 9.09347152709961 -10.850106239318848 9.107718467712402 -6.977484703063965 -2.739488124847412 -9.747666358947754 23.971084594726562 -20.310787200927734 20.706735610961914 -20.36550521850586 -35.59413528442383 0.12742798030376434 0.2775435745716095 0.14814837276935577 -0.15550275146961212 -0.44998008012771606 -0.2010023146867752 -0.12470979243516922 0.15332423150539398 0.0682174414396286 63.358421325683594 37.336387634277344 0.5871720910072327 -17.974428176879883 -11.365760803222656 35.128963470458984 -1.1680124998092651 0.6451137065887451 -0.3438493013381958 -0.10515350103378296 0.03617436811327934 -0.14325211942195892 0.660047709941864 0.7365686297416687 -0.12436514347791672 -0.10560037195682526 -0.6975452899932861 0.262613445520401 7.261590480804443 5.559903621673584 0.7513924241065979 0.233566552400589 -0.07881812006235123 -0.044448528438806534 2.783939838409424 0.8160682320594788 0.22968609631061554 0.18458862602710724 -0.33689987659454346 -0.3905359208583832 9.779047966003418 0.37167805433273315 0.4413513243198395 0.8491770625114441 0.757225751876831 -0.17591755092144012 2.3289079666137695 -0.5271709561347961 -0.3415440320968628 -0.21014823019504547 -0.04012224078178406 -0.18818683922290802 -75.36437225341797 34.38503646850586 -6.198342323303223 17.932960510253906 -10.899477005004883 -33.27235794067383 0.08876358717679977 9.44300651550293 -1.0883105993270874 -0.050995029509067535 0.033812034875154495 -0.6327220797538757 -0.4455753564834595 -0.5252407193183899 0.03902614489197731 0.761641263961792 0.5235550403594971 0.22911155223846436 -7.804610729217529 5.881462574005127 -0.7078319787979126 -0.22601431608200073 0.32338666915893555 0.2081405222415924 -2.9155259132385254 1.3624894618988037 -0.060897376388311386 0.0883512943983078 0.24860776960849762 0.03598236292600632 -10.127598762512207 0.5852394104003906 0.31408578157424927 0.04565616697072983 -0.35860180854797363 -0.5329130291938782 -2.7540340423583984 -0.443452924489975 -0.3416216969490051 0.0825674757361412 -0.033688101917505264 0.4139580726623535 -39.332332611083984 -61.833984375 -32.78127670288086 -1.1030702590942383 70.68644714355469 1.5710101127624512 2.9208052158355713 -7.689515113830566 15.805458068847656 0.10363191366195679 0.32622963190078735 -0.3149400055408478 6.301559925079346 8.214484214782715 5.389710903167725 -0.23356777429580688 36.23503494262695 -2.306060791015625 20.889577865600586 -22.843517303466797 40.4796257019043
-12.186331629748073 37.7656185626179 13.733615790452903 1.655971646308899 17.703527450561523 6.19757604598999 -12.32907485961914 9.098540306091309 -10.857877731323242 9.142402648925781 -6.9867072105407715 -2.744541883468628 -9.745390892028809 24.013174057006836 -20.38420295715332 20.71621322631836 -20.345687866210938 -35.7330207824707 0.11641619354486465 0.26983994245529175 0.14782892167568207 -0.14433905482292175 -0.4570680260658264 -0.1930854767560959 -0.11360787600278854 0.1710231602191925 0.0666477158665657 63.23173141479492 37.33415603637695 0.7404742240905762 -17.985830307006836 -11.41387939453125 35.19981384277344 -1.1720468997955322 0.6877455711364746 -0.33077898621559143 -0.11069705337285995 0.02671164460480213 -0.14468486607074738 0.663624107837677 0.7419093251228333 -0.1273115873336792 -0.11386065930128098 -0.7055147886276245 0.27404698729515076 7.263082981109619 5.565845966339111 0.7666823863983154 0.24005736410617828 -0.08041869848966599 -0.051217515021562576 2.7785725593566895 0.8204012513160706 0.23591125011444092 0.18846248090267181 -0.33417001366615295 -0.4080224931240082 9.778763771057129 0.3760242462158203 0.45267122983932495 0.8495697975158691 0.7674133777618408 -0.18329313397407532 2.332083225250244 -0.5155436396598816 -0.33040904998779297 -0.19112004339694977 -0.05996838957071304 -0.18424582481384277 -75.44670867919922 34.47956848144531 -5.997791290283203 17.996662139892578 -10.984874725341797 -33.39884948730469 0.10010279715061188 9.32541275024414 -1.0587208271026611 -0.043413061648607254 0.03368356451392174 -0.6356873512268066 -0.44828763604164124 -0.5395615696907043 0.025883907452225685 0.7778996229171753 0.535586953163147 0.23630279302597046 -7.800102233886719 5.888857841491699 -0.7158395648002625 -0.23133905231952667 0.3286812901496887 0.21509668231010437 -2.922621726989746 1.357366681098938 -0.06995778530836105 0.0777779370546341 0.26487064361572266 0.030029159039258957 -10.128362655639648 0.5725798606872559 0.30501729249954224 0.05071927234530449 -0.36336749792099 -0.5383367538452148 -2.76519513130188 -0.4397992789745331 -0.3482181131839752 0.09697700291872025 -0.0354415699839592 0.40823423862457275 -39.690547943115234 -61.88380432128906 -33.10253143310547 -1.0993908643722534 70.79569244384766 1.562345266342163 2.9709177017211914 -7.661098480224609 16.005573272705078 0.09838094562292099 0.3244958519935608 -0.33257871866226196 6.343220233917236 8.385411262512207 5.4200358390808105 -0.2441035509109497 36.130760192871094 -2.2912447452545166 20.94268798828125 -22.904647827148438 40.60465621948242
-12.459360010804575 37.77656394076285 14.015175824834694 1.598743200302124 17.657264709472656 6.219692707061768 -12.279772758483887 9.083240509033203 -10.83991813659668 9.12363338470459 -6.986747741699219 -2.7507147789001465 -9.741397857666016 24.018157958984375 -20.348922729492188 20.732738494873047 -20.342872619628906 -35.70316696166992 0.10634374618530273 0.27330198884010315 0.15514451265335083 -0.13722237944602966 -0.4646942913532257 -0.20083029568195343 -0.10916344821453094 0.1709904670715332 0.06715844571590424 63.26820373535156 37.433349609375 0.6729515194892883 -17.97881317138672 -11.416104316711426 35.21544647216797 -1.1646956205368042 0.5996813774108887 -0.33349964022636414 -0.11039571464061737 0.016293324530124664 -0.16174764931201935 0.6704685091972351 0.748399019241333 -0.1345725953578949 -0.12752531468868256 -0.6912776231765747 0.27468764781951904 7.261350631713867 5.574550151824951 0.7720564603805542 0.24204523861408234 -0.08357122540473938 -0.06703705340623856 2.7588388919830322 0.8203656673431396 0.23637840151786804 0.18197983503341675 -0.34399840235710144 -0.42011183500289917 9.785767555236816 0.38541966676712036 0.46502965688705444 0.8378768563270569 0.7739160656929016 -0.18241947889328003 2.338770627975464 -0.5248826742172241 -0.34079301357269287 -0.19787046313285828 -0.0691639631986618 -0.1812416911125183 -75.47147369384766 34.40897750854492 -5.961958885192871 17.982643127441406 -10.944077491760254 -33.34722137451172 0.10464197397232056 9.412118911743164 -1.087236762046814 -0.03197881206870079 0.037086207419633865 -0.6483164429664612 -0.45382341742515564 -0.5558397173881531 0.01275478396564722 0.7889833450317383 0.5258747339248657 0.24859972298145294 -7.795095443725586 5.885622501373291 -0.7153581380844116 -0.23279687762260437 0.3368603587150574 0.21595007181167603 -2.921509265899658 1.3569846153259277 -0.07510147988796234 0.07915496081113815 0.2627655267715454 0.03345280513167381 -10.140680313110352 0.5714793801307678 0.30197399854660034 0.046678755432367325 -0.3488473892211914 -0.5357088446617126 -2.7674617767333984 -0.43093758821487427 -0.34926241636276245 0.10627374053001404 -0.0410916842520237 0.4093717634677887 -39.51306915283203 -61.76366424560547 -32.95293045043945 -1.0753062963485718 70.68208312988281 1.5402969121932983 2.9201271533966064 -7.72844934463501 15.96561050415039 0.08562236279249191 0.32016852498054504 -0.3492414951324463 6.409777641296387 8.406392097473145 5.433848857879639 -0.24620632827281952 36.072139739990234 -2.28458309173584 20.914987564086914 -22.870195388793945 40.55145263671875
-12.72547560009079 37.801330206693315 14.293223007548981 1.5359389781951904 17.420177459716797 6.242458820343018 -12.193401336669922 9.057601928710938 -10.837263107299805 9.088814735412598 -6.976978302001953 -2.7566254138946533 -9.748942375183105 24.009952545166016 -20.31451416015625 20.75913429260254 -20.340072631835938 -35.6451416015625 0.10190729796886444 0.2834950089454651 0.15423639118671417 -0.14204846322536469 -0.4680582284927368 -0.21268540620803833 -0.11301453411579132 0.15644824504852295 0.0746707022190094 63.3745002746582 37.52432632446289 0.5376986861228943 -17.94392967224121 -11.356407165527344 35.13623809814453 -1.153241515159607 0.520286500453949 -0.33856940269470215 -0.11205293983221054 0.012090878561139107 -0.17432205379009247 0.6721445918083191 0.7555376887321472 -0.13780154287815094 -0.13704697787761688 -0.677724301815033 0.2740045487880707 7.2591681480407715 5.581131458282471 0.7697380781173706 0.24108895659446716 -0.08407346904277802 -0.07829657196998596 2.74068546295166 0.823530375957489 0.2323513925075531 0.17791526019573212 -0.3496876358985901 -0.41882097721099854 9.795392990112305 0.39366814494132996 0.4728684723377228 0.8290936946868896 0.7704537510871887 -0.17752918601036072 2.346000909805298 -0.5447999238967896 -0.35670801997184753 -0.2163662165403366 -0.060367144644260406 -0.18135808408260345 -75.49715423583984 34.3052978515625 -5.978909969329834 17.92506980895996 -10.829689979553223 -33.211063385009766 0.10100024938583374 9.566431999206543 -1.1302049160003662 -0.02562054991722107 0.03344625234603882 -0.6585667729377747 -0.4621545374393463 -0.5627670288085938 0.00902840867638588 0.7944880127906799 0.5093145966529846 0.2613811492919922 -7.7993388175964355 5.878504753112793 -0.7116087675094604 -0.2317570298910141 0.33990758657455444 0.20934197306632996 -2.9220988750457764 1.3614516258239746 -0.07068880647420883 0.0852326974272728 0.2534779906272888 0.036277204751968384 -10.153079986572266 0.5818175077438354 0.3049371838569641 0.040727317333221436 -0.3380676507949829 -0.5274114012718201 -2.7673556804656982 -0.4242149293422699 -0.3445141613483429 0.10666131228208542 -0.03930186852812767 0.40947914123535156 -39.081111907958984 -61.61909484863281 -32.56549835205078 -1.0463837385177612 70.47747039794922 1.5199837684631348 2.84944748878479 -7.806712627410889 15.822154998779297 0.07260958105325699 0.3122270703315735 -0.3538553714752197 6.41831111907959 8.33402156829834 5.388589382171631 -0.2478604018688202 36.02773666381836 -2.286996364593506 20.874916076660156 -22.796722412109375 40.4571647644043
